<svg width="512" height="521" viewBox="0 0 512 521" fill="none" xmlns="http://www.w3.org/2000/svg">
<path d="M427.059 391.812C438.238 411.607 424.296 436 402.065 436H110.045C87.8136 436 73.8724 411.606 84.7996 391.938L169.956 240.087L225.722 373.165C230.998 385.808 243.181 393.982 256.746 393.982C270.813 393.982 283.122 385.297 288.145 372.016L338.26 239.576L339.641 236L427.059 391.812ZM258.845 85C265.853 85 272.86 85.8963 279.74 87.6885C281.014 88.0725 282.288 88.3288 283.435 88.7129C284.709 89.0969 285.856 89.4811 287.13 89.9932C297.45 93.8338 307.134 99.8506 315.415 108.044C324.588 117.133 331.213 127.632 335.163 139.025C338.476 148.371 331.213 157.972 321.53 157.972H320.257C320.002 157.972 319.619 157.972 319.364 157.844C318.854 157.844 318.345 157.844 317.708 157.716H316.052C314.778 157.716 313.631 157.588 312.484 157.204C312.23 157.204 311.974 157.076 311.72 156.948C308.662 156.052 305.859 154.003 304.076 151.315C303.694 150.803 303.438 150.29 303.183 149.778C302.929 149.395 302.674 148.883 302.547 148.371C300.254 142.354 296.558 136.977 291.59 132.112C282.544 123.151 270.694 118.67 258.845 118.67C246.869 118.67 234.892 123.279 225.846 132.368L223.68 134.544C210.175 148.114 206.225 168.47 213.742 186.137L234.001 234.146L259.482 294.443L282.544 234.146L289.296 216.605H262.03C259.355 216.605 256.934 214.941 255.915 212.509L247.634 191.514C245.977 187.161 249.162 182.553 253.749 182.553H329.429C334.144 182.809 337.201 187.546 335.545 191.771C335.033 192.801 326.882 213.79 326.882 213.79L319.619 232.608L318.854 234.529L268.911 365.367C267.892 368.183 265.725 369.976 263.304 370.616C262.922 370.744 262.54 370.872 262.158 370.872C261.649 370.872 261.266 371 260.756 371C260.374 371 259.992 371 259.482 370.872C259.1 370.872 258.717 370.744 258.336 370.616C257.954 370.488 257.571 370.359 257.189 370.231C256.297 369.847 255.405 369.208 254.64 368.439C254.513 368.311 254.385 368.183 254.131 367.928C253.876 367.544 253.621 367.287 253.366 366.903C253.111 366.519 252.857 366.135 252.729 365.623L196.415 232.736L182.527 199.835C169.532 169.238 176.284 134.288 199.727 110.732L201.893 108.556C202.658 107.788 203.295 107.148 204.059 106.38C204.823 105.74 205.588 104.971 206.352 104.331C207.372 103.435 208.392 102.539 209.538 101.771C210.939 100.746 212.341 99.7223 213.742 98.6982C214.124 98.4422 214.635 98.0578 215.016 97.8018C215.908 97.1618 216.8 96.6497 217.819 96.1377C220.113 94.8575 222.406 93.577 224.827 92.4248C225.973 91.9127 227.248 91.4008 228.394 90.8887C238.078 86.9201 248.398 85 258.845 85Z" fill="#FF971D"/>
</svg>
