<svg width="69" height="69" viewBox="0 0 69 69" fill="none" xmlns="http://www.w3.org/2000/svg">
<path d="M63.2957 68.9999H5.72604C1.34332 68.9999 -1.40516 64.2015 0.749054 60.3326L17.5371 30.4618L28.531 56.6396C29.571 59.1267 31.9728 60.7346 34.647 60.7346C37.4203 60.7346 39.8469 59.0262 40.8373 56.4135L50.717 30.3613L50.9894 29.6578L68.2231 60.3075C70.4269 64.2015 67.6784 68.9999 63.2957 68.9999Z" fill="#FF971D"/>
<path d="M50.1479 21.0141C50.0477 21.2156 48.4437 25.3479 48.4437 25.3479L47.0151 29.0518L46.8647 29.4298L37.0402 55.1808C36.8397 55.7351 36.4136 56.0879 35.9374 56.2139C35.8622 56.2391 35.787 56.2643 35.7118 56.2643C35.6116 56.2643 35.5364 56.2895 35.4361 56.2895C35.361 56.2895 35.2858 56.2895 35.1855 56.2643C35.1103 56.2643 35.0351 56.2391 34.96 56.2139C34.8848 56.1887 34.8096 56.1635 34.7344 56.1383C34.5589 56.0627 34.3835 55.9367 34.2331 55.7855C34.2081 55.7603 34.183 55.7351 34.1329 55.6848C34.0828 55.6092 34.0326 55.5588 33.9825 55.4832C33.9324 55.4076 33.8823 55.332 33.8572 55.2312L22.7795 29.077L20.0477 22.6015C17.4913 16.5794 18.8196 9.70074 23.4311 5.06454L23.8572 4.6362C24.0076 4.48502 24.1329 4.35903 24.2833 4.20785C24.4336 4.08187 24.584 3.93069 24.7344 3.8047C24.9349 3.62833 25.1354 3.45195 25.3609 3.30077C25.6366 3.0992 25.9123 2.89762 26.188 2.69605C26.2632 2.64566 26.3635 2.57007 26.4386 2.51967C26.6141 2.39369 26.7895 2.2929 26.99 2.19212C27.4412 1.94015 27.8923 1.68818 28.3685 1.46141C28.594 1.36062 28.8447 1.25984 29.0702 1.15905C30.975 0.37795 33.0051 0 35.0602 0C36.4387 0 37.8171 0.176377 39.1705 0.529131C39.4211 0.604721 39.6717 0.655115 39.8973 0.730705C40.1479 0.806296 40.3735 0.881886 40.6241 0.982673C42.6542 1.73857 44.559 2.92282 46.188 4.53541C47.9925 6.32438 49.2958 8.39051 50.0727 10.633C50.7244 12.4724 49.2958 14.3621 47.391 14.3621C47.3158 14.3621 47.2407 14.3621 47.1404 14.3621C47.0903 14.3621 47.0151 14.3621 46.965 14.3369C46.8647 14.3369 46.7645 14.3369 46.6392 14.3117C46.564 14.3117 46.4888 14.3117 46.4136 14.3117H46.3133C46.0627 14.3117 45.8372 14.2865 45.6116 14.211C45.5615 14.211 45.5113 14.1858 45.4612 14.1606C44.8597 13.9842 44.3083 13.581 43.9575 13.0519C43.8823 12.9511 43.8321 12.8503 43.782 12.7495C43.7319 12.674 43.6818 12.5732 43.6567 12.4724C43.2056 11.2881 42.4787 10.2299 41.5013 9.27239C39.7219 7.50862 37.391 6.62674 35.0602 6.62674C32.7043 6.62674 30.3484 7.53382 28.569 9.32279L28.1429 9.75113C25.4863 12.422 24.7093 16.4283 26.188 19.9054L30.173 29.3542L35.1855 41.2218L39.7219 29.3542L41.0502 25.9022L35.6868 25.9022C35.1605 25.9022 34.6843 25.5747 34.4838 25.0959L32.8547 20.9637C32.5289 20.107 33.1554 19.1999 34.0577 19.1999L48.9449 19.1999C49.8722 19.2503 50.4737 20.1826 50.1479 21.0141Z" fill="#FF971D"/>
</svg>
